<svg width="24" height="24" viewBox="0 0 24 24" fill="none" xmlns="http://www.w3.org/2000/svg">
<path d="M8 5C9.65685 5 11 6.42709 11 8.1875V18.8125C11 20.5729 9.65685 22 8 22H7C5.34315 22 4 20.5729 4 18.8125V8.1875C4 6.42709 5.34315 5 7 5H8ZM7 7C6.44782 7 6.00016 7.48485 6 8.08301V18.917C6.00016 19.5152 6.44782 20 7 20H8C8.55218 20 8.99984 19.5152 9 18.917V8.08301C8.99984 7.48485 8.55218 7 8 7H7ZM17 5C18.6569 5 20 6.24013 20 7.76953V14.2305C20 15.7599 18.6569 17 17 17H16C14.3431 17 13 15.7599 13 14.2305V7.76953C13 6.24013 14.3431 5 16 5H17ZM16 7C15.4478 7 15.0001 7.39785 15 7.88867V14.1113C15.0001 14.6021 15.4478 15 16 15H17C17.5522 15 17.9999 14.6021 18 14.1113V7.88867C17.9999 7.39785 17.5522 7 17 7H16ZM21 2C21.5523 2 22 2.44772 22 3C22 3.51284 21.6135 3.9354 21.1162 3.99316L21 4H3C2.44772 4 2 3.55228 2 3C2 2.48716 2.38645 2.0646 2.88379 2.00684L3 2H21Z" fill="#CED5E0"/>
</svg>
