<svg width="24" height="24" viewBox="0 0 24 24" fill="none" xmlns="http://www.w3.org/2000/svg">
<path d="M18.4717 4.24088C18.9126 3.82545 19.601 3.82548 20.041 4.24186L20.1065 4.30436C20.5832 4.7558 20.5821 5.51505 20.1045 5.96549L14.2315 11.4997L20.1045 17.0339C20.5825 17.4843 20.5834 18.2444 20.1065 18.696L20.041 18.7575C19.6011 19.1739 18.9126 19.1747 18.4717 18.7594L12.5 13.1315L6.52833 18.7594C6.08743 19.1749 5.39898 19.1739 4.95899 18.7575L4.89356 18.696C4.4165 18.2444 4.41748 17.4843 4.89552 17.0339L10.7676 11.4997L4.89552 5.96549C4.41754 5.51501 4.41653 4.75586 4.89356 4.30436L4.95899 4.24186C5.399 3.82572 6.08754 3.8255 6.52833 4.24088L12.5 9.86784L18.4717 4.24088Z" fill="#3F8CFF"/>
</svg>
